<?xml version="1.0" encoding="UTF-8" standalone="no"?>
<!-- Created with Inkscape (http://www.inkscape.org/) -->

<svg
   width="140.85808mm"
   height="60.152054mm"
   viewBox="0 0 140.85808 60.152054"
   version="1.1"
   id="svg5"
   xmlns:inkscape="http://www.inkscape.org/namespaces/inkscape"
   xmlns:sodipodi="http://sodipodi.sourceforge.net/DTD/sodipodi-0.dtd"
   xmlns="http://www.w3.org/2000/svg"
   xmlns:svg="http://www.w3.org/2000/svg">
  <sodipodi:namedview
     id="namedview7"
     pagecolor="#505050"
     bordercolor="#ffffff"
     borderopacity="1"
     inkscape:showpageshadow="0"
     inkscape:pageopacity="0"
     inkscape:pagecheckerboard="1"
     inkscape:deskcolor="#505050"
     inkscape:document-units="mm"
     showgrid="false" />
  <defs
     id="defs2" />
  <g
     inkscape:label="Layer 1"
     inkscape:groupmode="layer"
     id="layer1"
     transform="translate(-34.570969,-118.42407)">
    <path
       id="path234"
       style="fill:#cd853f;fill-opacity:1;stroke-width:4.99999"
       d="m 105.00026,118.42406 a 30.075951,30.075951 0 0 0 -30.076201,30.0762 30.075951,30.075951 0 0 0 30.076201,30.07568 30.075951,30.075951 0 0 0 30.07568,-30.07568 30.075951,30.075951 0 0 0 -30.07568,-30.0762 z" />
    <path
       id="path7288"
       style="fill:none;fill-opacity:1;stroke:#ffffff;stroke-width:4.99999"
       d="m 102.67941,139.84046 a 8.9649467,70.273605 75 0 0 -65.55832,26.84791 8.9649467,70.273605 75 0 0 70.19899,-9.52869 8.9649467,70.273605 75 0 0 65.55897,-26.84755 8.9649467,70.273605 75 0 0 -70.19964,9.52833 z" />
  </g>
  <g
     inkscape:groupmode="layer"
     id="layer2"
     inkscape:label="Layer 2"
     transform="translate(-34.570969,-118.42407)">
    <path
       id="path234-4"
       style="fill:#cd853f;fill-opacity:1;stroke-width:4.99999"
       d="m 105.00031,118.4243 a 30.075951,30.075951 0 0 0 -30.076201,30.0762 30.075951,30.075951 0 0 0 2.612244,12.17393 c 1.166347,-0.21254 2.327105,-0.45728 3.481958,-0.7152 3.688682,-0.82382 5.86898,-1.42005 9.550838,-2.37092 2.26654,-0.61393 2.72126,-0.7369 3.399792,-0.92087 0.356967,-0.27443 0.881691,-0.47005 1.576131,-0.50385 0.11554,-0.006 0.230771,-0.0141 0.346233,-0.0207 0.661561,-0.18213 1.207233,-0.33382 3.621484,-1.00149 0.344909,-0.0954 0.658681,-0.13541 0.938441,-0.13074 0.52962,0.009 0.93551,0.17846 1.20045,0.43305 0.30846,-0.0559 0.61642,-0.11429 0.92397,-0.17518 0.30933,-0.31851 0.79799,-0.58131 1.48053,-0.70693 2.74506,-0.50527 5.44716,-1.20131 8.12199,-1.99265 1.59583,-0.55106 3.19152,-1.10301 4.78472,-1.6614 4.39548,-1.52243 2.25543,-0.77469 6.41976,-2.24172 0.37971,-0.13377 0.72536,-0.195 1.03094,-0.19844 0.17836,-0.002 0.34129,0.0175 0.49145,0.0517 0.28805,-0.0983 0.57656,-0.19508 0.86454,-0.29352 0.32088,-0.10969 0.61672,-0.16786 0.8847,-0.18397 0.0665,-0.0285 0.13296,-0.0573 0.19948,-0.0858 2.79451,-1.22279 1.44872,-0.62435 4.04006,-1.79214 0.4486,-0.20217 0.85515,-0.29142 1.20768,-0.29507 0.57576,-0.006 1.00653,0.21754 1.24127,0.55293 0.39402,-0.21601 0.76502,-0.30972 1.0883,-0.30334 0.20813,0.004 0.3964,0.049 0.55966,0.12609 a 30.075951,30.075951 0 0 0 -29.99042,-27.82 z m 28.5595,39.45444 c -3.19295,0.59308 -6.39456,1.14184 -9.60148,1.65726 -5.35416,0.9555 -10.69618,1.97529 -16.03572,3.00757 -0.8433,0.30618 -1.68997,0.60351 -2.54093,0.88935 -0.82193,0.27609 -1.4772,0.21598 -1.91823,-0.0264 -0.92984,0.18048 -1.8596,0.36082 -2.78949,0.54106 -4.097596,0.72911 -8.195742,1.48928 -12.332582,1.96267 -2.428927,0.26249 -4.87264,0.52464 -7.318417,0.42839 -0.05883,0.0144 -0.117373,0.0296 -0.176216,0.0439 a 30.075951,30.075951 0 0 0 24.153565,12.19357 30.075951,30.075951 0 0 0 28.5595,-20.69744 z"
       inkscape:label="path234-4" />
  </g>
</svg>
